<svg xmlns="http://www.w3.org/2000/svg" viewBox="0 0 900 520" width="900" height="520">
<defs>
<linearGradient id="bg" x1="0%" y1="0%" x2="100%" y2="100%"><stop offset="0%" stop-color="#060d1f"/><stop offset="60%" stop-color="#0d1a35"/><stop offset="100%" stop-color="#070e22"/></linearGradient>
<linearGradient id="pdark" x1="0%" y1="0%" x2="0%" y2="100%"><stop offset="0%" stop-color="#0e1c3a"/><stop offset="100%" stop-color="#091428"/></linearGradient>
<linearGradient id="pleft" x1="0%" y1="0%" x2="0%" y2="100%"><stop offset="0%" stop-color="#111e3d"/><stop offset="100%" stop-color="#080f25"/></linearGradient>
<linearGradient id="shld" x1="0%" y1="0%" x2="0%" y2="100%"><stop offset="0%" stop-color="#00f5e4"/><stop offset="100%" stop-color="#4361ee"/></linearGradient>
<linearGradient id="lcyan" x1="0%" y1="0%" x2="100%" y2="0%"><stop offset="0%" stop-color="#00f5e4" stop-opacity="0.1"/><stop offset="50%" stop-color="#00f5e4" stop-opacity="0.9"/><stop offset="100%" stop-color="#00f5e4" stop-opacity="0.1"/></linearGradient>
<radialGradient id="gblue" cx="50%" cy="50%" r="50%"><stop offset="0%" stop-color="#4361ee" stop-opacity="0.35"/><stop offset="100%" stop-color="#4361ee" stop-opacity="0"/></radialGradient>
<radialGradient id="gcyan" cx="50%" cy="50%" r="50%"><stop offset="0%" stop-color="#00f5e4" stop-opacity="0.28"/><stop offset="100%" stop-color="#00f5e4" stop-opacity="0"/></radialGradient>
<radialGradient id="gvio" cx="50%" cy="50%" r="50%"><stop offset="0%" stop-color="#7b61ff" stop-opacity="0.28"/><stop offset="100%" stop-color="#7b61ff" stop-opacity="0"/></radialGradient>
<filter id="gsm" x="-60%" y="-60%" width="220%" height="220%"><feGaussianBlur stdDeviation="3" result="b"/><feMerge><feMergeNode in="b"/><feMergeNode in="SourceGraphic"/></feMerge></filter>
<filter id="csh"><feDropShadow dx="0" dy="8" stdDeviation="16" flood-color="#020818" flood-opacity="0.65"/></filter>
<style>
@keyframes dash{to{stroke-dashoffset:-40}}
@keyframes pulse{0%,100%{opacity:.5}50%{opacity:1}}
@keyframes float{0%,100%{transform:translateY(0)}50%{transform:translateY(-6px)}}
@keyframes blink{0%,88%,100%{opacity:1}94%{opacity:0}}
@keyframes spark{0%{opacity:0}50%{opacity:1}100%{opacity:0}}
.cn{stroke-dasharray:5 4;animation:dash 1.5s linear infinite}
.pu{animation:pulse 2.4s ease-in-out infinite}
.fl{animation:float 4s ease-in-out infinite}
.cu{animation:blink 1.2s step-end infinite}
.s1{animation:spark 2.2s ease-in-out infinite}
.s2{animation:spark 2.2s ease-in-out .75s infinite}
.s3{animation:spark 2.2s ease-in-out 1.5s infinite}
</style>
</defs>
<rect width="900" height="520" fill="url(#bg)"/>
<g opacity=".04" stroke="#4361ee" stroke-width=".6"><line x1="0" y1="90" x2="900" y2="90"/><line x1="0" y1="180" x2="900" y2="180"/><line x1="0" y1="270" x2="900" y2="270"/><line x1="0" y1="360" x2="900" y2="360"/><line x1="0" y1="450" x2="900" y2="450"/><line x1="90" y1="0" x2="90" y2="520"/><line x1="180" y1="0" x2="180" y2="520"/><line x1="270" y1="0" x2="270" y2="520"/><line x1="360" y1="0" x2="360" y2="520"/><line x1="450" y1="0" x2="450" y2="520"/><line x1="540" y1="0" x2="540" y2="520"/><line x1="630" y1="0" x2="630" y2="520"/><line x1="720" y1="0" x2="720" y2="520"/><line x1="810" y1="0" x2="810" y2="520"/></g>
<ellipse cx="200" cy="265" rx="220" ry="190" fill="url(#gblue)" opacity=".55"/>
<ellipse cx="700" cy="265" rx="220" ry="190" fill="url(#gvio)" opacity=".45"/>
<ellipse cx="450" cy="265" rx="160" ry="140" fill="url(#gcyan)" opacity=".22"/>
<g transform="translate(22,52)" filter="url(#csh)">
<rect width="376" height="418" rx="16" fill="url(#pleft)" stroke="rgba(67,97,238,.28)" stroke-width="1"/>
<rect width="376" height="38" rx="16" fill="#0c1830"/><rect y="20" width="376" height="18" fill="#0c1830"/><circle cx="18" cy="19" r="5" fill="#ff5f56" opacity=".8"/><circle cx="34" cy="19" r="5" fill="#ffbd2e" opacity=".8"/><circle cx="50" cy="19" r="5" fill="#27c93f" opacity=".8"/><rect x="66" y="8" width="130" height="22" rx="6" fill="rgba(67,97,238,.2)" stroke="rgba(67,97,238,.4)" stroke-width=".8"/><text x="78" y="23" fill="#a0b4f0" font-family="monospace" font-size="10.5">anomaly_engine.py</text>
<text x="14" y="58" fill="#1e3060" font-family="monospace" font-size="11">01</text><text x="38" y="58" fill="#5a7bbb" font-family="monospace" font-size="11">import</text><text x="86" y="58" fill="#c9d8ff" font-family="monospace" font-size="11">opsmitra</text>
<text x="14" y="76" fill="#1e3060" font-family="monospace" font-size="11">02</text><text x="38" y="76" fill="#5a7bbb" font-family="monospace" font-size="11">from llm.local import</text><text x="196" y="76" fill="#7b61ff" font-family="monospace" font-size="11">QwenEngine</text>
<text x="14" y="94" fill="#1e3060" font-family="monospace" font-size="11">03</text>
<rect x="30" y="100" width="334" height="18" rx="3" fill="rgba(255,80,80,.12)" stroke="rgba(255,80,80,.3)" stroke-width=".7"/><text x="14" y="113" fill="#1e3060" font-family="monospace" font-size="11">04</text><text x="38" y="113" fill="#ff6b6b" font-family="monospace" font-size="11">def detect_anomaly(trace):</text>
<text x="14" y="131" fill="#1e3060" font-family="monospace" font-size="11">05</text><text x="54" y="131" fill="#5a7bbb" font-family="monospace" font-size="11">if trace.latency &gt; 800:</text>
<text x="14" y="149" fill="#1e3060" font-family="monospace" font-size="11">06</text><text x="54" y="149" fill="#1fd18f" font-family="monospace" font-size="11">engine.alert(</text><text x="148" y="149" fill="#ffbd2e" font-family="monospace" font-size="11">"p99_spike"</text><text x="226" y="149" fill="#1fd18f" font-family="monospace" font-size="11">)</text>
<text x="14" y="167" fill="#1e3060" font-family="monospace" font-size="11">07</text><text x="54" y="167" fill="#5a7bbb" font-family="monospace" font-size="11">return</text><text x="98" y="167" fill="#7b61ff" font-family="monospace" font-size="11">RCA.explain(trace)</text>
<text x="14" y="185" fill="#1e3060" font-family="monospace" font-size="11">08</text><text x="38" y="185" fill="#2a4070" font-family="monospace" font-size="11"># air-gapped, no egress</text>
<line x1="30" y1="200" x2="346" y2="200" stroke="rgba(67,97,238,.15)" stroke-width="1"/>
<rect x="14" y="210" width="348" height="92" rx="10" fill="rgba(0,245,228,.05)" stroke="rgba(0,245,228,.25)" stroke-width=".8"/><circle cx="32" cy="228" r="8" fill="rgba(0,245,228,.18)" stroke="#00f5e4" stroke-width="1"/><text x="29" y="232" fill="#00f5e4" font-family="monospace" font-size="9" font-weight="bold">AI</text><text x="48" y="228" fill="#00f5e4" font-family="monospace" font-size="10" font-weight="bold">Code-Path RCA</text><text x="18" y="247" fill="#7a9ec0" font-family="monospace" font-size="9.5">anomaly_engine.py:4 -&gt; trace.py:89</text><text x="18" y="263" fill="#7a9ec0" font-family="monospace" font-size="9.5">Memory leak in TraceBuffer.flush()</text><text x="18" y="279" fill="#7a9ec0" font-family="monospace" font-size="9.5">Commit #a3f14b introduced regression</text><rect x="38" y="293" width="7" height="12" rx="1" fill="#00f5e4" class="cu" opacity=".9"/>
<text x="14" y="336" fill="#2d4070" font-family="monospace" font-size="9.5">CPU</text><rect x="44" y="326" width="200" height="7" rx="3" fill="rgba(255,255,255,.05)"/><rect x="44" y="326" width="138" height="7" rx="3" fill="#4361ee" opacity=".8"/><text x="252" y="336" fill="#7b9fff" font-family="monospace" font-size="9.5">69%</text>
<text x="14" y="354" fill="#2d4070" font-family="monospace" font-size="9.5">MEM</text><rect x="44" y="344" width="200" height="7" rx="3" fill="rgba(255,255,255,.05)"/><rect x="44" y="344" width="176" height="7" rx="3" fill="#7b61ff" opacity=".8"/><text x="252" y="354" fill="#a07bff" font-family="monospace" font-size="9.5">88%</text>
<text x="14" y="372" fill="#2d4070" font-family="monospace" font-size="9.5">P99</text><rect x="44" y="362" width="200" height="7" rx="3" fill="rgba(255,255,255,.05)"/><rect x="44" y="362" width="200" height="7" rx="3" fill="#ff6b6b" opacity=".85"/><text x="252" y="372" fill="#ff8f8f" font-family="monospace" font-size="9.5">847ms</text>
<rect x="14" y="392" width="106" height="19" rx="5" fill="rgba(0,245,228,.1)" stroke="rgba(0,245,228,.32)" stroke-width=".7"/><text x="22" y="405" fill="#00f5e4" font-family="monospace" font-size="8.5" font-weight="bold" letter-spacing=".07em">CODE-AWARE</text><rect x="128" y="392" width="94" height="19" rx="5" fill="rgba(67,97,238,.1)" stroke="rgba(67,97,238,.32)" stroke-width=".7"/><text x="136" y="405" fill="#7b9fff" font-family="monospace" font-size="8.5" font-weight="bold" letter-spacing=".07em">AIR-GAPPED</text>
</g>
<path d="M400 200 C428 200 438 215 458 225" stroke="#4361ee" stroke-width="1.4" fill="none" opacity=".5" class="cn"/>
<path d="M400 305 C428 305 438 292 458 282" stroke="#00f5e4" stroke-width="1.4" fill="none" opacity=".4" class="cn"/>
<circle cx="428" cy="210" r="3" fill="#4361ee" filter="url(#gsm)" class="s1"/>
<circle cx="428" cy="296" r="3" fill="#00f5e4" filter="url(#gsm)" class="s2"/>
<g transform="translate(458,62)" class="fl" filter="url(#csh)">
<rect width="216" height="396" rx="18" fill="url(#pdark)" stroke="rgba(0,245,228,.28)" stroke-width="1.2"/>
<rect width="216" height="42" rx="18" fill="#0a1628"/><rect y="22" width="216" height="20" fill="#0a1628"/><g transform="translate(12,10)"><path d="M10 2L18 5L18 12C18 16.5 14.5 20 10 21C5.5 20 2 16.5 2 12L2 5Z" fill="none" stroke="url(#shld)" stroke-width="1.6" stroke-linejoin="round"/><path d="M6.5 11L9 13.5L13.5 8.5" stroke="#00f5e4" stroke-width="1.6" stroke-linecap="round" stroke-linejoin="round" fill="none"/></g><text x="38" y="22" fill="#e2eaff" font-family="sans-serif" font-size="11" font-weight="bold">OpsMitra Engine</text><text x="38" y="35" fill="#2d4870" font-family="monospace" font-size="8.5">air-gapped local LLM</text><line x1="14" y1="50" x2="202" y2="50" stroke="rgba(67,97,238,.18)" stroke-width=".8"/>
<circle cx="44" cy="96" r="9" fill="rgba(67,97,238,.18)" stroke="#4361ee" stroke-width="1.4" filter="url(#gsm)"/><circle cx="44" cy="137" r="9" fill="rgba(67,97,238,.18)" stroke="#4361ee" stroke-width="1.4" filter="url(#gsm)"/><circle cx="44" cy="178" r="9" fill="rgba(67,97,238,.18)" stroke="#4361ee" stroke-width="1.4" filter="url(#gsm)"/><circle cx="44" cy="219" r="9" fill="rgba(67,97,238,.18)" stroke="#4361ee" stroke-width="1.4" filter="url(#gsm)"/>
<circle cx="108" cy="77" r="11" fill="rgba(123,97,255,.18)" stroke="#7b61ff" stroke-width="1.4" filter="url(#gsm)"/><circle cx="108" cy="124" r="11" fill="rgba(123,97,255,.24)" stroke="#7b61ff" stroke-width="2" filter="url(#gsm)"/><circle cx="108" cy="171" r="11" fill="rgba(123,97,255,.18)" stroke="#7b61ff" stroke-width="1.4" filter="url(#gsm)"/><circle cx="108" cy="218" r="11" fill="rgba(123,97,255,.18)" stroke="#7b61ff" stroke-width="1.4" filter="url(#gsm)"/><circle cx="108" cy="261" r="11" fill="rgba(123,97,255,.18)" stroke="#7b61ff" stroke-width="1.4" filter="url(#gsm)"/>
<circle cx="172" cy="107" r="9" fill="rgba(0,245,228,.18)" stroke="#00f5e4" stroke-width="1.4" filter="url(#gsm)"/><circle cx="172" cy="169" r="9" fill="rgba(0,245,228,.18)" stroke="#00f5e4" stroke-width="1.4" filter="url(#gsm)"/><circle cx="172" cy="231" r="9" fill="rgba(0,245,228,.18)" stroke="#00f5e4" stroke-width="1.4" filter="url(#gsm)"/>
<g stroke="rgba(67,97,238,.18)" stroke-width=".7" fill="none"><line x1="53" y1="96" x2="97" y2="77"/><line x1="53" y1="96" x2="97" y2="124"/><line x1="53" y1="137" x2="97" y2="77"/><line x1="53" y1="137" x2="97" y2="124"/><line x1="53" y1="137" x2="97" y2="171"/><line x1="53" y1="178" x2="97" y2="124"/><line x1="53" y1="178" x2="97" y2="171"/><line x1="53" y1="178" x2="97" y2="218"/><line x1="53" y1="219" x2="97" y2="171"/><line x1="53" y1="219" x2="97" y2="218"/><line x1="53" y1="219" x2="97" y2="261"/></g>
<g stroke="rgba(0,245,228,.15)" stroke-width=".7" fill="none"><line x1="119" y1="77" x2="163" y2="107"/><line x1="119" y1="124" x2="163" y2="107"/><line x1="119" y1="124" x2="163" y2="169"/><line x1="119" y1="171" x2="163" y2="107"/><line x1="119" y1="171" x2="163" y2="169"/><line x1="119" y1="171" x2="163" y2="231"/><line x1="119" y1="218" x2="163" y2="169"/><line x1="119" y1="218" x2="163" y2="231"/><line x1="119" y1="261" x2="163" y2="231"/></g>
<line x1="53" y1="137" x2="97" y2="124" stroke="#4361ee" stroke-width="2" opacity=".75" class="pu"/><line x1="119" y1="124" x2="163" y2="169" stroke="#7b61ff" stroke-width="2" opacity=".75" class="pu"/>
<text x="36" y="99" fill="#4a6aa0" font-family="monospace" font-size="6.5" text-anchor="middle">log</text><text x="36" y="140" fill="#4a6aa0" font-family="monospace" font-size="6.5" text-anchor="middle">trace</text><text x="36" y="181" fill="#4a6aa0" font-family="monospace" font-size="6.5" text-anchor="middle">mtrc</text><text x="36" y="222" fill="#4a6aa0" font-family="monospace" font-size="6.5" text-anchor="middle">code</text><text x="180" y="110" fill="#00f5e4" font-family="monospace" font-size="6.5" text-anchor="middle">RCA</text><text x="180" y="172" fill="#00f5e4" font-family="monospace" font-size="6.5" text-anchor="middle">alert</text><text x="180" y="234" fill="#00f5e4" font-family="monospace" font-size="6.5" text-anchor="middle">heal</text>
<rect x="12" y="284" width="192" height="52" rx="10" fill="rgba(123,97,255,.1)" stroke="rgba(123,97,255,.28)" stroke-width=".8"/><text x="22" y="302" fill="#a07bff" font-family="monospace" font-size="9" font-weight="bold">LOCAL LLM</text><text x="22" y="318" fill="#c9d8ff" font-family="monospace" font-size="8.5">Qwen2.5-7B · vLLM · AWQ</text><text x="22" y="332" fill="#2d4870" font-family="monospace" font-size="8.5">Zero egress · On-prem GPU</text><circle cx="195" cy="308" r="5.5" fill="rgba(31,209,143,.2)" stroke="#1fd18f" stroke-width="1.4" class="pu"/><circle cx="195" cy="308" r="2.5" fill="#1fd18f"/>
<rect x="12" y="348" width="192" height="36" rx="8" fill="rgba(0,0,0,.2)"/><text x="22" y="363" fill="#2d4870" font-family="monospace" font-size="8.5">Inference</text><rect x="22" y="368" width="152" height="6" rx="3" fill="rgba(255,255,255,.05)"/><rect x="22" y="368" width="104" height="6" rx="3" fill="url(#lcyan)" class="pu"/><text x="178" y="376" fill="#00f5e4" font-family="monospace" font-size="8.5">68%</text>
</g>
<path d="M676 200 C698 200 698 222 682 238" stroke="#7b61ff" stroke-width="1.4" fill="none" opacity=".45" class="cn"/>
<path d="M676 292 C698 292 698 312 682 328" stroke="#1fd18f" stroke-width="1.4" fill="none" opacity=".4" class="cn"/>
<circle cx="688" cy="248" r="3" fill="#7b61ff" filter="url(#gsm)" class="s3"/>
<g transform="translate(684,52)" filter="url(#csh)">
<rect width="194" height="418" rx="16" fill="url(#pdark)" stroke="rgba(123,97,255,.25)" stroke-width="1"/>
<rect width="194" height="38" rx="16" fill="#0c1830"/><rect y="20" width="194" height="18" fill="#0c1830"/><text x="14" y="23" fill="#e2eaff" font-family="sans-serif" font-size="10.5" font-weight="bold">Incident Feed</text><circle cx="162" cy="19" r="4.5" fill="rgba(31,209,143,.2)" stroke="#1fd18f" stroke-width="1.2" class="pu"/><circle cx="162" cy="19" r="2.2" fill="#1fd18f"/><text x="170" y="23" fill="#1fd18f" font-family="monospace" font-size="8.5" font-weight="bold">LIVE</text><line x1="10" y1="46" x2="184" y2="46" stroke="rgba(67,97,238,.14)" stroke-width=".8"/>
<g transform="translate(10,56)"><rect width="174" height="70" rx="9" fill="rgba(31,209,143,.06)" stroke="rgba(31,209,143,.22)" stroke-width=".7"/><rect x="0" y="0" width="4" height="70" rx="2" fill="#1fd18f"/><text x="12" y="16" fill="#1fd18f" font-family="monospace" font-size="8.5" font-weight="bold">RESOLVED</text><text x="12" y="31" fill="#c9d8ff" font-family="sans-serif" font-size="10" font-weight="600">P99 latency spike</text><text x="12" y="46" fill="#3d5a80" font-family="monospace" font-size="8">api-gateway</text><text x="12" y="58" fill="#3d5a80" font-family="monospace" font-size="8">MTTR: 2m 12s</text></g>
<g transform="translate(10,138)"><rect width="174" height="70" rx="9" fill="rgba(255,107,107,.07)" stroke="rgba(255,107,107,.3)" stroke-width=".7"/><rect x="0" y="0" width="4" height="70" rx="2" fill="#ff6b6b"/><text x="12" y="16" fill="#ff6b6b" font-family="monospace" font-size="8.5" font-weight="bold">ACTIVE</text><text x="12" y="31" fill="#c9d8ff" font-family="sans-serif" font-size="10" font-weight="600">Memory &gt; 88%</text><text x="12" y="46" fill="#3d5a80" font-family="monospace" font-size="8">payment-svc</text><text x="12" y="58" fill="#ffbd2e" font-family="monospace" font-size="8">AI: Diagnosing...</text></g>
<g transform="translate(10,220)"><rect width="174" height="58" rx="9" fill="rgba(255,255,255,.025)" stroke="rgba(255,255,255,.07)" stroke-width=".7"/><rect x="0" y="0" width="4" height="58" rx="2" fill="#3d5280"/><text x="12" y="16" fill="#4a6090" font-family="monospace" font-size="8.5" font-weight="bold">SUPPRESSED</text><text x="12" y="31" fill="#8ab4d4" font-family="sans-serif" font-size="10">Noisy alert x17</text><text x="12" y="46" fill="#2d4060" font-family="monospace" font-size="8">Deduped · last 4h</text></g>
<rect x="10" y="290" width="174" height="80" rx="9" fill="rgba(255,255,255,.02)" stroke="rgba(67,97,238,.12)" stroke-width=".7"/><text x="18" y="306" fill="#2d4060" font-family="monospace" font-size="8">Error Rate (1h)</text><polygon points="18,362 40,355 62,358 84,347 106,334 128,326 150,316 174,306 174,370 18,370" fill="rgba(67,97,238,.1)"/><polyline points="18,362 40,355 62,358 84,347 106,334 128,326 150,316 174,306" fill="none" stroke="#4361ee" stroke-width="1.5"/><circle cx="84" cy="347" r="3.5" fill="none" stroke="#ff6b6b" stroke-width="1.4"/><line x1="84" y1="318" x2="84" y2="345" stroke="#ff6b6b" stroke-width=".8" stroke-dasharray="2 2"/><text x="68" y="316" fill="#ff6b6b" font-family="monospace" font-size="7.5">spike</text>
<rect x="10" y="384" width="80" height="18" rx="5" fill="rgba(123,97,255,.1)" stroke="rgba(123,97,255,.28)" stroke-width=".7"/><text x="18" y="396" fill="#a07bff" font-family="monospace" font-size="7.5" font-weight="bold">SELF-HOST</text><rect x="96" y="384" width="88" height="18" rx="5" fill="rgba(31,209,143,.1)" stroke="rgba(31,209,143,.28)" stroke-width=".7"/><text x="104" y="396" fill="#1fd18f" font-family="monospace" font-size="7.5" font-weight="bold">ZERO EGRESS</text>
</g>
<g transform="translate(22,488)">
<rect width="192" height="22" rx="8" fill="rgba(14,28,58,.9)" stroke="rgba(0,245,228,.18)" stroke-width=".7"/><text x="14" y="15" fill="#1a3050" font-family="monospace" font-size="8">MTTR</text><text x="60" y="15" fill="#e2eaff" font-family="sans-serif" font-size="12" font-weight="800">&lt;3 min</text><text x="150" y="15" fill="#1fd18f" font-family="monospace" font-size="8">-74%</text>
<g transform="translate(204,0)"><rect width="182" height="22" rx="8" fill="rgba(14,28,58,.9)" stroke="rgba(67,97,238,.2)" stroke-width=".7"/><text x="14" y="15" fill="#1a3050" font-family="monospace" font-size="8">NOISE</text><text x="60" y="15" fill="#e2eaff" font-family="sans-serif" font-size="12" font-weight="800">-91%</text><text x="120" y="15" fill="#4361ee" font-family="monospace" font-size="8">deduped</text></g>
<g transform="translate(398,0)"><rect width="172" height="22" rx="8" fill="rgba(14,28,58,.9)" stroke="rgba(123,97,255,.2)" stroke-width=".7"/><text x="14" y="15" fill="#1a3050" font-family="monospace" font-size="8">EGRESS</text><text x="68" y="15" fill="#e2eaff" font-family="sans-serif" font-size="12" font-weight="800">Zero</text><text x="116" y="15" fill="#7b61ff" font-family="monospace" font-size="8">air-gapped</text></g>
<g transform="translate(582,0)"><rect width="296" height="22" rx="8" fill="rgba(14,28,58,.9)" stroke="rgba(31,209,143,.2)" stroke-width=".7"/><text x="14" y="15" fill="#1a3050" font-family="monospace" font-size="8">DEPLOY</text><text x="68" y="15" fill="#e2eaff" font-family="sans-serif" font-size="12" font-weight="800">Self-Hosted</text><text x="186" y="15" fill="#1fd18f" font-family="monospace" font-size="8">Docker offline</text></g>
</g>
<g transform="translate(356,14)"><path d="M14 2L24 6L24 14C24 20 19 25 14 27C9 25 4 20 4 14L4 6Z" fill="none" stroke="url(#shld)" stroke-width="1.7" stroke-linejoin="round"/><path d="M10 13.5L13 16.5L18 11" stroke="#00f5e4" stroke-width="1.7" stroke-linecap="round" stroke-linejoin="round" fill="none"/><text x="34" y="18" fill="#e2eaff" font-family="sans-serif" font-size="18" font-weight="900" letter-spacing="-.02em">OpsMitra</text><text x="34" y="30" fill="#2d4870" font-family="monospace" font-size="8" letter-spacing=".14em">AIOPS PLATFORM</text></g>
<circle cx="80" cy="38" r="1.8" fill="#4361ee" class="s1" opacity=".7"/><circle cx="858" cy="42" r="1.5" fill="#1fd18f" class="s2" opacity=".7"/><circle cx="450" cy="492" r="1.8" fill="#7b61ff" class="s3" opacity=".6"/><circle cx="660" cy="30" r="1.5" fill="#00f5e4" class="s1" opacity=".6"/>
</svg>
